<svg aria-hidden="true" style="position:absolute;width:0;height:0;overflow:hidden" xmlns="http://www.w3.org/2000/svg">
  <defs>
    <symbol id="paste" viewBox="0 0 32 32">
      <path d="M22 4h-4V2c0-1.1-.9-2-2-2h-4c-1.1 0-2 .9-2 2v2H6v4h16V4zm-6 0h-4V2.004L12.004 2h3.993l.004.004V4zm10 6V5c0-.55-.45-1-1-1h-2v2h1v4h-6l-6 6v8H4V6h1V4H3c-.55 0-1 .45-1 1v20c0 .55.45 1 1 1h9v6h20V10h-6zm-8 2.828V16h-3.172L18 12.828zM30 30H14V18h6v-6h10v18z"/>
    </symbol>
    <symbol id="magic-wand" viewBox="0 0 32 32">
      <path d="M8 6 4 2H2v2l4 4zm2-6h2v4h-2zm8 10h4v2h-4zm2-6V2h-2l-4 4 2 2zM0 10h4v2H0zm10 8h2v4h-2zm-8 0v2h2l4-4-2-2zm29.563 9.563L11.684 7.684a1.505 1.505 0 0 0-2.121 0L7.684 9.563a1.505 1.505 0 0 0 0 2.121l19.879 19.879a1.505 1.505 0 0 0 2.121 0l1.879-1.879a1.505 1.505 0 0 0 0-2.121zM15 17l-6-6 2-2 6 6-2 2z"/>
    </symbol>
    <symbol id="stats-dots" viewBox="0 0 32 32">
      <path d="M4 28h28v4H0V0h4zm5-2a3 3 0 1 1 .262-5.988l3.225-5.375a3 3 0 1 1 5.026 0l3.225 5.375a3.238 3.238 0 0 1 .46-.005l5.324-9.316a3 3 0 1 1 2.28 1.302l-5.324 9.316a3 3 0 1 1-4.991.053l-3.225-5.375c-.086.007-.174.012-.262.012s-.176-.005-.262-.012l-3.225 5.375A3 3 0 0 1 9 25.999z"/>
    </symbol>
    <symbol id="briefcase" viewBox="0 0 32 32">
      <path d="M30 8h-8V6c0-1.1-.9-2-2-2h-8c-1.1 0-2 .9-2 2v2H2c-1.1 0-2 .9-2 2v18c0 1.1.9 2 2 2h28c1.1 0 2-.9 2-2V10c0-1.1-.9-2-2-2zM12 6.004 12.004 6h7.993l.004.004V8h-8V6.004zM30 16h-4v3c0 .55-.45 1-1 1h-2c-.55 0-1-.45-1-1v-3H10v3c0 .55-.45 1-1 1H7c-.55 0-1-.45-1-1v-3H2v-2h28v2z"/>
    </symbol>
    <symbol id="mail2" viewBox="0 0 32 32">
      <path d="M26.667 0H5.334C2.4 0 0 2.4 0 5.334v21.332C0 29.602 2.4 32 5.334 32h21.333C29.601 32 32 29.602 32 26.666V5.334C32 2.4 29.601 0 26.667 0zm0 4c.25 0 .486.073.688.198L16 13.586 4.645 4.199c.202-.125.439-.198.689-.198h21.333zM5.334 28a1.32 1.32 0 0 1-.178-.013l7.051-9.78-.914-.914L4 24.586V5.488L16 20 28 5.488v19.098l-7.293-7.293-.914.914 7.051 9.78a1.294 1.294 0 0 1-.177.013H5.334z"/>
    </symbol>
    <symbol id="facebook" viewBox="0 0 32 32">
      <path d="M19 6h5V0h-5c-3.86 0-7 3.14-7 7v3H8v6h4v16h6V16h5l1-6h-6V7c0-.542.458-1 1-1z"/>
    </symbol>
    <symbol id="twitter" viewBox="0 0 32 32">
      <path d="M32 7.075a12.941 12.941 0 0 1-3.769 1.031 6.601 6.601 0 0 0 2.887-3.631 13.21 13.21 0 0 1-4.169 1.594A6.565 6.565 0 0 0 22.155 4a6.563 6.563 0 0 0-6.563 6.563c0 .512.056 1.012.169 1.494A18.635 18.635 0 0 1 2.23 5.195a6.56 6.56 0 0 0-.887 3.3 6.557 6.557 0 0 0 2.919 5.463 6.565 6.565 0 0 1-2.975-.819v.081a6.565 6.565 0 0 0 5.269 6.437 6.574 6.574 0 0 1-2.968.112 6.588 6.588 0 0 0 6.131 4.563 13.17 13.17 0 0 1-9.725 2.719 18.568 18.568 0 0 0 10.069 2.95c12.075 0 18.681-10.006 18.681-18.681 0-.287-.006-.569-.019-.85A13.216 13.216 0 0 0 32 7.076z"/>
    </symbol>
       <symbol id="pinterest" viewBox="0 0 32 32">
<path d="M16 2.138c-7.656 0-13.863 6.206-13.863 13.863 0 5.875 3.656 10.887 8.813 12.906-0.119-1.094-0.231-2.781 0.050-3.975 0.25-1.081 1.625-6.887 1.625-6.887s-0.412-0.831-0.412-2.056c0-1.925 1.119-3.369 2.506-3.369 1.181 0 1.756 0.887 1.756 1.95 0 1.188-0.756 2.969-1.15 4.613-0.331 1.381 0.688 2.506 2.050 2.506 2.462 0 4.356-2.6 4.356-6.35 0-3.319-2.387-5.638-5.787-5.638-3.944 0-6.256 2.956-6.256 6.019 0 1.194 0.456 2.469 1.031 3.163 0.113 0.137 0.131 0.256 0.094 0.4-0.106 0.438-0.338 1.381-0.387 1.575-0.063 0.256-0.2 0.306-0.463 0.188-1.731-0.806-2.813-3.337-2.813-5.369 0-4.375 3.175-8.387 9.156-8.387 4.806 0 8.544 3.425 8.544 8.006 0 4.775-3.012 8.625-7.194 8.625-1.406 0-2.725-0.731-3.175-1.594 0 0-0.694 2.644-0.863 3.294-0.313 1.206-1.156 2.712-1.725 3.631 1.3 0.4 2.675 0.619 4.106 0.619 7.656 0 13.863-6.206 13.863-13.863 0-7.662-6.206-13.869-13.863-13.869z"></path>
</symbol>
  </defs>
</svg>
