<svg aria-hidden="true" style="position:absolute;width:0;height:0;overflow:hidden" xmlns="http://www.w3.org/2000/svg">
  <defs>
    <symbol id="paste" viewBox="0 0 32 32">
      <path d="M22 4h-4V2c0-1.1-.9-2-2-2h-4c-1.1 0-2 .9-2 2v2H6v4h16V4zm-6 0h-4V2.004L12.004 2h3.993l.004.004V4zm10 6V5c0-.55-.45-1-1-1h-2v2h1v4h-6l-6 6v8H4V6h1V4H3c-.55 0-1 .45-1 1v20c0 .55.45 1 1 1h9v6h20V10h-6zm-8 2.828V16h-3.172L18 12.828zM30 30H14V18h6v-6h10v18z"/>
    </symbol>
    <symbol id="magic-wand" viewBox="0 0 32 32">
      <path d="M8 6 4 2H2v2l4 4zm2-6h2v4h-2zm8 10h4v2h-4zm2-6V2h-2l-4 4 2 2zM0 10h4v2H0zm10 8h2v4h-2zm-8 0v2h2l4-4-2-2zm29.563 9.563L11.684 7.684a1.505 1.505 0 0 0-2.121 0L7.684 9.563a1.505 1.505 0 0 0 0 2.121l19.879 19.879a1.505 1.505 0 0 0 2.121 0l1.879-1.879a1.505 1.505 0 0 0 0-2.121zM15 17l-6-6 2-2 6 6-2 2z"/>
    </symbol>
    <symbol id="stats-dots" viewBox="0 0 32 32">
      <path d="M4 28h28v4H0V0h4zm5-2a3 3 0 1 1 .262-5.988l3.225-5.375a3 3 0 1 1 5.026 0l3.225 5.375a3.238 3.238 0 0 1 .46-.005l5.324-9.316a3 3 0 1 1 2.28 1.302l-5.324 9.316a3 3 0 1 1-4.991.053l-3.225-5.375c-.086.007-.174.012-.262.012s-.176-.005-.262-.012l-3.225 5.375A3 3 0 0 1 9 25.999z"/>
    </symbol>
    <symbol id="briefcase" viewBox="0 0 32 32">
      <path d="M30 8h-8V6c0-1.1-.9-2-2-2h-8c-1.1 0-2 .9-2 2v2H2c-1.1 0-2 .9-2 2v18c0 1.1.9 2 2 2h28c1.1 0 2-.9 2-2V10c0-1.1-.9-2-2-2zM12 6.004 12.004 6h7.993l.004.004V8h-8V6.004zM30 16h-4v3c0 .55-.45 1-1 1h-2c-.55 0-1-.45-1-1v-3H10v3c0 .55-.45 1-1 1H7c-.55 0-1-.45-1-1v-3H2v-2h28v2z"/>
    </symbol>
    <symbol id="mail2" viewBox="0 0 32 32">
      <path d="M26.667 0H5.334C2.4 0 0 2.4 0 5.334v21.332C0 29.602 2.4 32 5.334 32h21.333C29.601 32 32 29.602 32 26.666V5.334C32 2.4 29.601 0 26.667 0zm0 4c.25 0 .486.073.688.198L16 13.586 4.645 4.199c.202-.125.439-.198.689-.198h21.333zM5.334 28a1.32 1.32 0 0 1-.178-.013l7.051-9.78-.914-.914L4 24.586V5.488L16 20 28 5.488v19.098l-7.293-7.293-.914.914 7.051 9.78a1.294 1.294 0 0 1-.177.013H5.334z"/>
    </symbol>
    <symbol id="facebook" viewBox="0 0 32 32">
      <path d="M19 6h5V0h-5c-3.86 0-7 3.14-7 7v3H8v6h4v16h6V16h5l1-6h-6V7c0-.542.458-1 1-1z"/>
    </symbol>
    <symbol id="twitter" viewBox="0 0 32 32">
      <path d="M32 7.075a12.941 12.941 0 0 1-3.769 1.031 6.601 6.601 0 0 0 2.887-3.631 13.21 13.21 0 0 1-4.169 1.594A6.565 6.565 0 0 0 22.155 4a6.563 6.563 0 0 0-6.563 6.563c0 .512.056 1.012.169 1.494A18.635 18.635 0 0 1 2.23 5.195a6.56 6.56 0 0 0-.887 3.3 6.557 6.557 0 0 0 2.919 5.463 6.565 6.565 0 0 1-2.975-.819v.081a6.565 6.565 0 0 0 5.269 6.437 6.574 6.574 0 0 1-2.968.112 6.588 6.588 0 0 0 6.131 4.563 13.17 13.17 0 0 1-9.725 2.719 18.568 18.568 0 0 0 10.069 2.95c12.075 0 18.681-10.006 18.681-18.681 0-.287-.006-.569-.019-.85A13.216 13.216 0 0 0 32 7.076z"/>
    </symbol>
    <symbol id="pinterest2" viewBox="0 0 32 32">
      <path d="M16 0C7.175 0 0 7.175 0 16s7.175 16 16 16 16-7.175 16-16S24.825 0 16 0zm0 29.863c-1.431 0-2.806-.219-4.106-.619.563-.919 1.412-2.431 1.725-3.631.169-.65.863-3.294.863-3.294.45.863 1.775 1.594 3.175 1.594 4.181 0 7.194-3.844 7.194-8.625 0-4.581-3.738-8.006-8.544-8.006-5.981 0-9.156 4.019-9.156 8.387 0 2.031 1.081 4.563 2.813 5.369.262.125.4.069.463-.188.044-.194.281-1.131.387-1.575a.427.427 0 0 0-.094-.4c-.575-.694-1.031-1.975-1.031-3.162 0-3.056 2.313-6.019 6.256-6.019 3.406 0 5.788 2.319 5.788 5.637 0 3.75-1.894 6.35-4.356 6.35-1.363 0-2.381-1.125-2.05-2.506.394-1.65 1.15-3.425 1.15-4.613 0-1.063-.569-1.95-1.756-1.95-1.394 0-2.506 1.438-2.506 3.369 0 1.225.412 2.056.412 2.056s-1.375 5.806-1.625 6.887c-.281 1.2-.169 2.881-.05 3.975-5.156-2.012-8.813-7.025-8.813-12.9 0-7.656 6.206-13.863 13.862-13.863s13.863 6.206 13.863 13.863c0 7.656-6.206 13.863-13.863 13.863z"/>
    </symbol>
  </defs>
</svg>
